# xmcd CD database file
#
# Track frame offsets:
#	150
#	28336
#	54231
#	75196
#	97319
#	109673
#	130990
#	143981
#	171586
#	188264
#	213633
#
# Disc length: 3488 seconds
#
# Revision: 0
# Processed by: cddbd v1.5.2PL0 Copyright (c) Steve Scherf et al.
# Submitted via: CDex 1.70beta2
#
DISCID=990d9e0b
DTITLE=All-Body band - SLAMMIN
DYEAR=2005
DGENRE=Jazz
TTITLE0=Overjoyed [Cabra de Peste]
TTITLE1=Pressure Drop
TTITLE2=Way You Move
TTITLE3=Can't Get It Right
TTITLE4=Body Music: Slammed
TTITLE5=Thank You/Just Be Thankful/What Is Hip
TTITLE6=Gateway to Freedom
TTITLE7=Freedom Jazz Dance
TTITLE8=Where I Know My Name
TTITLE9=All Blues/Ven Aca
TTITLE10=Irene's Good Night
EXTD=YEAR: 2005
EXTT0=
EXTT1=
EXTT2=
EXTT3=
EXTT4=
EXTT5=
EXTT6=
EXTT7=
EXTT8=
EXTT9=
EXTT10=
PLAYORDER=
